<svg style="position: absolute; width: 0; height: 0; overflow: hidden;" version="1.1" xmlns="http://www.w3.org/2000/svg" xmlns:xlink="http://www.w3.org/1999/xlink">
<defs>
<symbol id="icon-twitter" viewBox="0 0 30 32">
<path class="path1" d="M28.929 7.286q-1.196 1.75-2.893 2.982 0.018 0.25 0.018 0.75 0 2.321-0.679 4.634t-2.063 4.437-3.295 3.759-4.607 2.607-5.768 0.973q-4.839 0-8.857-2.589 0.625 0.071 1.393 0.071 4.018 0 7.161-2.464-1.875-0.036-3.357-1.152t-2.036-2.848q0.589 0.089 1.089 0.089 0.768 0 1.518-0.196-2-0.411-3.313-1.991t-1.313-3.67v-0.071q1.214 0.679 2.607 0.732-1.179-0.786-1.875-2.054t-0.696-2.75q0-1.571 0.786-2.911 2.161 2.661 5.259 4.259t6.634 1.777q-0.143-0.679-0.143-1.321 0-2.393 1.688-4.080t4.080-1.688q2.5 0 4.214 1.821 1.946-0.375 3.661-1.393-0.661 2.054-2.536 3.179 1.661-0.179 3.321-0.893z"></path>
</symbol>
<symbol id="icon-facebook" viewBox="0 0 19 32">
<path class="path1" d="M17.125 0.214v4.714h-2.804q-1.536 0-2.071 0.643t-0.536 1.929v3.375h5.232l-0.696 5.286h-4.536v13.554h-5.464v-13.554h-4.554v-5.286h4.554v-3.893q0-3.321 1.857-5.152t4.946-1.83q2.625 0 4.071 0.214z"></path>
</symbol>
<symbol id="icon-github" viewBox="0 0 27 32">
<path class="path1" d="M13.714 2.286q3.732 0 6.884 1.839t4.991 4.991 1.839 6.884q0 4.482-2.616 8.063t-6.759 4.955q-0.482 0.089-0.714-0.125t-0.232-0.536q0-0.054 0.009-1.366t0.009-2.402q0-1.732-0.929-2.536 1.018-0.107 1.83-0.321t1.679-0.696 1.446-1.188 0.946-1.875 0.366-2.688q0-2.125-1.411-3.679 0.661-1.625-0.143-3.643-0.5-0.161-1.446 0.196t-1.643 0.786l-0.679 0.429q-1.661-0.464-3.429-0.464t-3.429 0.464q-0.286-0.196-0.759-0.482t-1.491-0.688-1.518-0.241q-0.804 2.018-0.143 3.643-1.411 1.554-1.411 3.679 0 1.518 0.366 2.679t0.938 1.875 1.438 1.196 1.679 0.696 1.83 0.321q-0.696 0.643-0.875 1.839-0.375 0.179-0.804 0.268t-1.018 0.089-1.17-0.384-0.991-1.116q-0.339-0.571-0.866-0.929t-0.884-0.429l-0.357-0.054q-0.375 0-0.518 0.080t-0.089 0.205 0.161 0.25 0.232 0.214l0.125 0.089q0.393 0.179 0.777 0.679t0.563 0.911l0.179 0.411q0.232 0.679 0.786 1.098t1.196 0.536 1.241 0.125 0.991-0.063l0.411-0.071q0 0.679 0.009 1.58t0.009 0.973q0 0.321-0.232 0.536t-0.714 0.125q-4.143-1.375-6.759-4.955t-2.616-8.063q0-3.732 1.839-6.884t4.991-4.991 6.884-1.839zM5.196 21.982q0.054-0.125-0.125-0.214-0.179-0.054-0.232 0.036-0.054 0.125 0.125 0.214 0.161 0.107 0.232-0.036zM5.75 22.589q0.125-0.089-0.036-0.286-0.179-0.161-0.286-0.054-0.125 0.089 0.036 0.286 0.179 0.179 0.286 0.054zM6.286 23.393q0.161-0.125 0-0.339-0.143-0.232-0.304-0.107-0.161 0.089 0 0.321t0.304 0.125zM7.036 24.143q0.143-0.143-0.071-0.339-0.214-0.214-0.357-0.054-0.161 0.143 0.071 0.339 0.214 0.214 0.357 0.054zM8.054 24.589q0.054-0.196-0.232-0.286-0.268-0.071-0.339 0.125t0.232 0.268q0.268 0.107 0.339-0.107zM9.179 24.679q0-0.232-0.304-0.196-0.286 0-0.286 0.196 0 0.232 0.304 0.196 0.286 0 0.286-0.196zM10.214 24.5q-0.036-0.196-0.321-0.161-0.286 0.054-0.25 0.268t0.321 0.143 0.25-0.25z"></path>
</symbol>
<symbol id="icon-bars" viewBox="0 0 30 30">
<path class="path1" d="m 0.5,24.005625 29,0 c 0.277,0 0.5,0.223 0.5,0.5 0,0.277 -0.223,0.5 -0.5,0.5 l -29,0 c -0.277,0 -0.5,-0.223 -0.5,-0.5 0,-0.277 0.223,-0.5 0.5,-0.5 z m 0,-10.002813 29,0 c 0.277,0 0.5,0.223 0.5,0.5 0,0.277 -0.223,0.5 -0.5,0.5 l -29,0 c -0.277,0 -0.5,-0.223 -0.5,-0.5 0,-0.277 0.223,-0.5 0.5,-0.5 z M 0.5,4 29.5,4 C 29.777,4 30,4.223 30,4.5 30,4.777 29.777,5 29.5,5 L 0.5,5 C 0.223,5 0,4.777 0,4.5 0,4.223 0.223,4 0.5,4 Z"></path>
</symbol>
<symbol id="icon-linkedin" viewBox="0 0 27 32">
<path class="path1" d="M6.232 11.161v17.696h-5.893v-17.696h5.893zM6.607 5.696q0.018 1.304-0.902 2.179t-2.42 0.875h-0.036q-1.464 0-2.357-0.875t-0.893-2.179q0-1.321 0.92-2.188t2.402-0.866 2.375 0.866 0.911 2.188zM27.429 18.714v10.143h-5.875v-9.464q0-1.875-0.723-2.938t-2.259-1.063q-1.125 0-1.884 0.616t-1.134 1.527q-0.196 0.536-0.196 1.446v9.875h-5.875q0.036-7.125 0.036-11.554t-0.018-5.286l-0.018-0.857h5.875v2.571h-0.036q0.357-0.571 0.732-1t1.009-0.929 1.554-0.777 2.045-0.277q3.054 0 4.911 2.027t1.857 5.938z"></path>
</symbol>
<symbol id="icon-youtube" viewBox="0 0 27 32">
<path class="path1" d="M17.339 22.214v3.768q0 1.196-0.696 1.196-0.411 0-0.804-0.393v-5.375q0.393-0.393 0.804-0.393 0.696 0 0.696 1.196zM23.375 22.232v0.821h-1.607v-0.821q0-1.214 0.804-1.214t0.804 1.214zM6.125 18.339h1.911v-1.679h-5.571v1.679h1.875v10.161h1.786v-10.161zM11.268 28.5h1.589v-8.821h-1.589v6.75q-0.536 0.75-1.018 0.75-0.321 0-0.375-0.375-0.018-0.054-0.018-0.625v-6.5h-1.589v6.982q0 0.875 0.143 1.304 0.214 0.661 1.036 0.661 0.857 0 1.821-1.089v0.964zM18.929 25.857v-3.518q0-1.304-0.161-1.768-0.304-1-1.268-1-0.893 0-1.661 0.964v-3.875h-1.589v11.839h1.589v-0.857q0.804 0.982 1.661 0.982 0.964 0 1.268-0.982 0.161-0.482 0.161-1.786zM24.964 25.679v-0.232h-1.625q0 0.911-0.036 1.089-0.125 0.643-0.714 0.643-0.821 0-0.821-1.232v-1.554h3.196v-1.839q0-1.411-0.482-2.071-0.696-0.911-1.893-0.911-1.214 0-1.911 0.911-0.5 0.661-0.5 2.071v3.089q0 1.411 0.518 2.071 0.696 0.911 1.929 0.911 1.286 0 1.929-0.946 0.321-0.482 0.375-0.964 0.036-0.161 0.036-1.036zM14.107 9.375v-3.75q0-1.232-0.768-1.232t-0.768 1.232v3.75q0 1.25 0.768 1.25t0.768-1.25zM26.946 22.786q0 4.179-0.464 6.25-0.25 1.054-1.036 1.768t-1.821 0.821q-3.286 0.375-9.911 0.375t-9.911-0.375q-1.036-0.107-1.83-0.821t-1.027-1.768q-0.464-2-0.464-6.25 0-4.179 0.464-6.25 0.25-1.054 1.036-1.768t1.839-0.839q3.268-0.357 9.893-0.357t9.911 0.357q1.036 0.125 1.83 0.839t1.027 1.768q0.464 2 0.464 6.25zM9.125 0h1.821l-2.161 7.125v4.839h-1.786v-4.839q-0.25-1.321-1.089-3.786-0.661-1.839-1.161-3.339h1.893l1.268 4.696zM15.732 5.946v3.125q0 1.446-0.5 2.107-0.661 0.911-1.893 0.911-1.196 0-1.875-0.911-0.5-0.679-0.5-2.107v-3.125q0-1.429 0.5-2.089 0.679-0.911 1.875-0.911 1.232 0 1.893 0.911 0.5 0.661 0.5 2.089zM21.714 3.054v8.911h-1.625v-0.982q-0.946 1.107-1.839 1.107-0.821 0-1.054-0.661-0.143-0.429-0.143-1.339v-7.036h1.625v6.554q0 0.589 0.018 0.625 0.054 0.393 0.375 0.393 0.482 0 1.018-0.768v-6.804h1.625z"></path>
</symbol>
<symbol id="icon-chain" viewBox="0 0 30 32">
<path class="path1" d="M26 21.714q0-0.714-0.5-1.214l-3.714-3.714q-0.5-0.5-1.214-0.5-0.75 0-1.286 0.571 0.054 0.054 0.339 0.33t0.384 0.384 0.268 0.339 0.232 0.455 0.063 0.491q0 0.714-0.5 1.214t-1.214 0.5q-0.268 0-0.491-0.063t-0.455-0.232-0.339-0.268-0.384-0.384-0.33-0.339q-0.589 0.554-0.589 1.304 0 0.714 0.5 1.214l3.679 3.696q0.482 0.482 1.214 0.482 0.714 0 1.214-0.464l2.625-2.607q0.5-0.5 0.5-1.196zM13.446 9.125q0-0.714-0.5-1.214l-3.679-3.696q-0.5-0.5-1.214-0.5-0.696 0-1.214 0.482l-2.625 2.607q-0.5 0.5-0.5 1.196 0 0.714 0.5 1.214l3.714 3.714q0.482 0.482 1.214 0.482 0.75 0 1.286-0.554-0.054-0.054-0.339-0.33t-0.384-0.384-0.268-0.339-0.232-0.455-0.063-0.491q0-0.714 0.5-1.214t1.214-0.5q0.268 0 0.491 0.063t0.455 0.232 0.339 0.268 0.384 0.384 0.33 0.339q0.589-0.554 0.589-1.304zM29.429 21.714q0 2.143-1.518 3.625l-2.625 2.607q-1.482 1.482-3.625 1.482-2.161 0-3.643-1.518l-3.679-3.696q-1.482-1.482-1.482-3.625 0-2.196 1.571-3.732l-1.571-1.571q-1.536 1.571-3.714 1.571-2.143 0-3.643-1.5l-3.714-3.714q-1.5-1.5-1.5-3.643t1.518-3.625l2.625-2.607q1.482-1.482 3.625-1.482 2.161 0 3.643 1.518l3.679 3.696q1.482 1.482 1.482 3.625 0 2.196-1.571 3.732l1.571 1.571q1.536-1.571 3.714-1.571 2.143 0 3.643 1.5l3.714 3.714q1.5 1.5 1.5 3.643z"></path>
</symbol>
<symbol id="icon-cloudmusic" viewBox="0 0 31.031 34">
<path class="path1" d="M21.279,-0.015 C21.630,0.041 21.985,0.081 22.333,0.156 C23.553,0.419 24.646,0.948 25.611,1.723 C26.244,2.231 26.502,2.894 26.319,3.679 C26.154,4.385 25.693,4.861 24.981,5.064 C24.307,5.256 23.699,5.110 23.146,4.677 C22.445,4.127 21.667,3.747 20.735,3.828 C19.945,3.897 19.190,4.710 19.258,5.436 C19.288,5.761 19.407,6.078 19.491,6.398 C19.640,6.962 19.794,7.525 19.945,8.089 C19.971,8.186 19.996,8.263 20.135,8.271 C22.258,8.384 24.171,9.060 25.876,10.313 C27.552,11.545 28.924,13.024 29.844,14.882 C30.519,16.246 30.897,17.686 30.997,19.197 C31.130,21.206 30.889,23.171 30.090,25.026 C28.232,29.338 24.965,32.119 20.371,33.397 C18.623,33.884 16.832,34.074 15.019,33.973 C11.250,33.763 7.985,32.370 5.235,29.851 C2.521,27.367 0.829,24.312 0.241,20.726 C-0.560,15.848 0.668,11.475 3.917,7.682 C5.701,5.598 7.928,4.097 10.525,3.128 C11.420,2.793 12.399,3.105 12.890,3.869 C13.392,4.650 13.274,5.655 12.579,6.276 C12.383,6.452 12.135,6.591 11.887,6.690 C7.928,8.271 5.313,11.056 4.274,15.118 C3.266,19.058 4.157,22.665 6.730,25.843 C8.343,27.835 10.427,29.173 12.949,29.830 C14.579,30.255 16.226,30.282 17.886,30.031 C19.599,29.772 21.199,29.221 22.634,28.260 C24.608,26.937 26.015,25.174 26.718,22.930 C27.325,20.993 27.346,19.037 26.596,17.115 C25.992,15.568 24.924,14.378 23.585,13.396 C22.870,12.871 22.102,12.462 21.226,12.261 C21.186,12.252 21.145,12.247 21.073,12.236 C21.193,12.684 21.304,13.110 21.419,13.535 C21.697,14.559 21.981,15.582 22.254,16.608 C22.847,18.838 22.273,20.791 20.704,22.455 C19.252,23.995 17.404,24.665 15.285,24.464 C12.925,24.240 11.240,22.987 10.141,20.958 C9.565,19.896 9.317,18.751 9.271,17.553 C9.198,15.645 9.653,13.884 10.770,12.309 C11.970,10.618 13.631,9.533 15.595,8.859 C15.749,8.806 15.906,8.758 16.087,8.699 C15.981,8.306 15.871,7.923 15.776,7.537 C15.645,7.005 15.477,6.476 15.411,5.936 C15.217,4.338 15.718,2.949 16.846,1.785 C17.770,0.833 18.890,0.229 20.232,0.048 C20.380,0.028 20.527,0.006 20.675,-0.015 C20.876,-0.015 21.077,-0.015 21.279,-0.015 ZM17.088,12.387 C15.925,12.749 14.921,13.301 14.168,14.219 C13.161,15.449 12.960,16.862 13.281,18.363 C13.448,19.143 13.838,19.810 14.522,20.276 C15.377,20.858 16.542,20.833 17.436,20.228 C18.350,19.608 18.757,18.609 18.490,17.585 C18.198,16.463 17.887,15.345 17.584,14.225 C17.421,13.623 17.258,13.019 17.088,12.387 Z"></path>
</symbol>
<symbol id="icon-rss" viewBox="0 0 64 64">
    <path class="path1" d="M8,48c-4.418,0-8,3.582-8,8s3.582,8,8,8s8-3.582,8-8S12.418,48,8,48z M0,23v11c16.569,0,30,13.432,30,30h11C41,41.355,22.644,23,0,23z M0,0v11c29.271,0,53,23.729,53,53h11C64,28.654,35.346,0,0,0z"></path>
</symbol>
</defs>
</svg>
